# xmcd
#
# Track frame offsets:
#	150
#	17973
#	36122
#	48699
#	68106
#	90681
#	112801
#	139865
#	159146
#	172322
#	191412
#	206375
#	230521
#	244623
#
# Disc length: 3514 seconds
#
# Revision: 0
# Processed by: cddbd v1.5.2PL0 Copyright (c) Steve Scherf et al.
# Submitted via: EZCDAudioConverter 1.0.4.1
#
DISCID=ba0db80e
DTITLE=Ljudski pevci iz Tepanja - Pesmi davnih casov
DYEAR=2011
DGENRE=Ljudske
TTITLE0=Zvonovi lepi so izbrani
TTITLE1=Tam v vinskih goricah
TTITLE2=Kam si slo dete
TTITLE3=Lezi lezi ravno polje
TTITLE4=Ljubeznivi moj tovarsi
TTITLE5=Nekoc zivel je mladi meznar
TTITLE6=Stoji stoji tam pod goro
TTITLE7=Zapeti se hocem posebno slovo
TTITLE8=Pletla je deklica vencek
TTITLE9=Kangalilejska ohcet
TTITLE10=Ko dan se zaznava
TTITLE11=Po placu go Gracu
TTITLE12=Za godovni dan
TTITLE13=Rasti rasti rozmarin
EXTD=
EXTT0=
EXTT1=
EXTT2=
EXTT3=
EXTT4=
EXTT5=
EXTT6=
EXTT7=
EXTT8=
EXTT9=
EXTT10=
EXTT11=
EXTT12=
EXTT13=
PLAYORDER=
